<svg id="Layer_1" data-name="Layer 1" xmlns="http://www.w3.org/2000/svg" viewBox="0 0 200 200"><defs><style>.cls-1{fill:#fff;}</style></defs><title>iconos alexis 03042017</title><path class="cls-1" d="M70.86,133.16q0-32.53,0-65.05c0-1.28.24-1.69,1.62-1.69q18.22,0.09,36.44,0c1.32,0,1.68.36,1.66,1.68-0.08,5.13,0,10.27,0,15.4,0,0.41-.29,1,0.29,1.2s0.69-.44.9-0.81a39.86,39.86,0,0,1,15.31-14.78,46.53,46.53,0,0,1,22.18-5.87,64.55,64.55,0,0,1,22.7,3.14c11.16,3.86,18.69,11.49,23,22.35,3.57,8.91,4.85,18.28,5.25,27.77,0.64,15.34.21,30.7,0.29,46.05,0.06,12,0,23.93,0,35.89,0,1.12-.15,1.54-1.44,1.54q-19.39-.09-38.78,0c-1.29,0-1.46-.41-1.46-1.54q0-33.63,0-67.25c0-6.24-.32-12.46-2.34-18.44-2.91-8.64-9.29-13.17-18.42-13.21a30.56,30.56,0,0,0-11.46,1.78c-5.94,2.33-9.59,6.78-11.73,12.64-2.25,6.16-2.73,12.59-2.74,19.07q-0.05,32.66,0,65.33c0,1.36-.37,1.63-1.66,1.62q-19.12-.08-38.23,0c-1.24,0-1.49-.34-1.48-1.52Q70.89,165.82,70.86,133.16Z"/><path class="cls-1" d="M3.3,133.2q0-32.59,0-65.18c0-1.22.26-1.6,1.55-1.59q19.18,0.08,38.36,0c1.21,0,1.51.3,1.51,1.51q-0.05,65.31,0,130.63c0,1.15-.29,1.43-1.43,1.43q-19.32-.07-38.64,0c-1.08,0-1.35-.27-1.35-1.35Q3.33,165.92,3.3,133.2Z"/><path class="cls-1" d="M0,24A24.12,24.12,0,1,1,23.83,48.24,24.08,24.08,0,0,1,0,24Z"/></svg>