<svg id="Layer_1" data-name="Layer 1" xmlns="http://www.w3.org/2000/svg" viewBox="0 0 200 200"><defs><style>.cls-1{fill:#fff;}</style></defs><title>iconos alexis 03042017</title><path class="cls-1" d="M200.48,38.61a0.5,0.5,0,0,0-.59-0.11A46.74,46.74,0,0,1,178,43.62V43.38c13.8-8.8,17.74-21,17.78-21.14A0.5,0.5,0,0,0,195,21.7c-8.44,6.27-23.06,9-25,9.4l-0.92-.78c-6.33-5.45-25.58-22-53.12-5.13-21.54,16.35-18.77,36.58-17,43.41-8.11-.62-55.32-5.82-84.1-43a0.48,0.48,0,0,0-.43-0.19,0.5,0.5,0,0,0-.4.24c-0.18.31-17.86,30.75,11.11,54.27-2,.52-7.82,1.2-16.53-4.12a0.51,0.51,0,0,0-.51,0,0.5,0.5,0,0,0-.26.44c0,0.32.37,32,31.74,40.62-0.66.44-3.56,1.41-16.09,0.42a0.52,0.52,0,0,0-.42.17,0.5,0.5,0,0,0-.11.44c0.06,0.28,6.34,27.35,37.49,28.34C32.7,168.85,1.72,163.08,1.41,163a0.5,0.5,0,0,0-.31.94c1.41,0.65,3.06,1.5,5,2.48C17.47,172.28,36.85,182.2,65,182.2a127.65,127.65,0,0,0,20.5-1.7c53.12-12,76.34-44.36,86.46-69.35a130.19,130.19,0,0,0,9.35-51.58A76.06,76.06,0,0,0,200.55,39.2,0.5,0.5,0,0,0,200.48,38.61Z"/></svg>